<?xml version="1.0" encoding="UTF-8"?>
<svg version="1.1" xmlns="http://www.w3.org/2000/svg" width="64" height="64">
<path d="M0 0 C21.12 0 42.24 0 64 0 C64 21.12 64 42.24 64 64 C42.88 64 21.76 64 0 64 C0 42.88 0 21.76 0 0 Z " fill="#12121B" transform="translate(0,0)"/>
<path d="M0 0 C5.62255686 3.8239868 9.36931228 9.13562389 10.7109375 15.84375 C11.65441965 24.43828269 9.57925152 30.54127897 4.8359375 37.65625 C-0.56474005 43.215771 -6.42109906 45.86262341 -14.1015625 46.21875 C-21.69380623 46.05867257 -27.71847835 42.88041235 -33.2890625 37.84375 C-37.89989348 31.02252065 -40.87314043 24.10261786 -39.2890625 15.84375 C-37.5217598 9.99014424 -34.98053914 5.84866908 -30.2890625 1.84375 C-29.0825 0.7609375 -29.0825 0.7609375 -27.8515625 -0.34375 C-18.77160614 -6.76615816 -9.24505219 -5.03843461 0 0 Z " fill="#16151F" transform="translate(46.2890625,11.15625)"/>
<path d="M0 0 C5.62255686 3.8239868 9.36931228 9.13562389 10.7109375 15.84375 C11.65441965 24.43828269 9.57925152 30.54127897 4.8359375 37.65625 C-0.56474005 43.215771 -6.42109906 45.86262341 -14.1015625 46.21875 C-21.69380623 46.05867257 -27.71847835 42.88041235 -33.2890625 37.84375 C-37.89989348 31.02252065 -40.87314043 24.10261786 -39.2890625 15.84375 C-37.5217598 9.99014424 -34.98053914 5.84866908 -30.2890625 1.84375 C-29.0825 0.7609375 -29.0825 0.7609375 -27.8515625 -0.34375 C-18.77160614 -6.76615816 -9.24505219 -5.03843461 0 0 Z M-31.2890625 5.84375 C-35.40283643 11.28711384 -37.13545939 16.22798382 -36.76171875 23.0703125 C-35.75402928 28.98320113 -33.65015727 33.8408903 -29.0234375 37.765625 C-22.26902123 42.34119731 -17.49943298 43.74657211 -9.2890625 42.84375 C-2.20978221 40.77348972 1.84139549 37.25657079 5.65234375 31.02734375 C8.14429305 25.88712361 8.53850812 20.45998171 7.7109375 14.84375 C4.89966392 7.67552105 0.69164805 3.04386251 -6.2890625 -0.15625 C-15.10258461 -3.0940907 -24.79636032 -0.82443062 -31.2890625 5.84375 Z " fill="#CB9F60" transform="translate(46.2890625,11.15625)"/>
<path d="M0 0 C2.875 0.3125 2.875 0.3125 3.875 1.3125 C3.94758946 3.49889453 3.95873783 5.68750389 3.9375 7.875 C3.92847656 9.07253906 3.91945313 10.27007812 3.91015625 11.50390625 C3.89855469 12.43074219 3.88695312 13.35757813 3.875 14.3125 C2.555 14.3125 1.235 14.3125 -0.125 14.3125 C-0.125 12.6625 -0.125 11.0125 -0.125 9.3125 C-0.785 9.3125 -1.445 9.3125 -2.125 9.3125 C-2.125 10.9625 -2.125 12.6125 -2.125 14.3125 C-3.445 14.3125 -4.765 14.3125 -6.125 14.3125 C-6.20653933 12.73003293 -6.26443557 11.14633727 -6.3125 9.5625 C-6.34730469 8.68078125 -6.38210938 7.7990625 -6.41796875 6.890625 C-5.9140274 2.45594108 -4.4724886 0.44724886 0 0 Z " fill="#B0BAE2" transform="translate(22.125,24.6875)"/>
<path d="M0 0 C3.63 0 7.26 0 11 0 C11 1.32 11 2.64 11 4 C10.34 4 9.68 4 9 4 C8.67 7.3 8.34 10.6 8 14 C6.68 14 5.36 14 4 14 C3.67 10.37 3.34 6.74 3 3 C2.01 3.33 1.02 3.66 0 4 C0 2.68 0 1.36 0 0 Z " fill="#C0CAF5" transform="translate(27,25)"/>
<path d="M0 0 C1.32 0 2.64 0 4 0 C4.33 3.63 4.66 7.26 5 11 C6.32 10.67 7.64 10.34 9 10 C8.67 11.32 8.34 12.64 8 14 C5.36 14 2.72 14 0 14 C0 9.38 0 4.76 0 0 Z " fill="#B8C1EB" transform="translate(40,25)"/>
<path d="M0 0 C0.33 0 0.66 0 1 0 C1.33 3.96 1.66 7.92 2 12 C0.68 12 -0.64 12 -2 12 C-2.05395478 10.37536158 -2.09277195 8.75021459 -2.125 7.125 C-2.14820313 6.22007813 -2.17140625 5.31515625 -2.1953125 4.3828125 C-2 2 -2 2 0 0 Z " fill="#BCC6F0" transform="translate(18,27)"/>
<path d="M0 0 C3.63 0 7.26 0 11 0 C11 1.32 11 2.64 11 4 C10.34 4 9.68 4 9 4 C8.67 7.3 8.34 10.6 8 14 C7.67 14 7.34 14 7 14 C7 9.71 7 5.42 7 1 C5.68 1 4.36 1 3 1 C2.67 1.99 2.34 2.98 2 4 C1.34 4 0.68 4 0 4 C0 2.68 0 1.36 0 0 Z " fill="#A0A8CD" transform="translate(27,25)"/>
<path d="M0 0 C1.98 0 3.96 0 6 0 C5.01 0.33 4.02 0.66 3 1 C3 2.98 3 4.96 3 7 C2.01 7.33 1.02 7.66 0 8 C0 5.36 0 2.72 0 0 Z " fill="#696E89" transform="translate(19,25)"/>
<path d="M0 0 C2.53406213 0.41412689 3.38974184 1.39458144 5.0078125 3.328125 C3.38317408 3.38207978 1.75802709 3.42089695 0.1328125 3.453125 C-0.77210937 3.47632813 -1.67703125 3.49953125 -2.609375 3.5234375 C-4.9921875 3.328125 -4.9921875 3.328125 -6.9921875 1.328125 C-5.11954074 -0.54452176 -2.49458803 0.09205122 0 0 Z " fill="#C0975C" transform="translate(31.9921875,53.671875)"/>
<path d="M0 0 C0.33 0.66 0.66 1.32 1 2 C1.66 2 2.32 2 3 2 C2.67 3.65 2.34 5.3 2 7 C0.68 7.33 -0.64 7.66 -2 8 C-1.34 5.36 -0.68 2.72 0 0 Z " fill="#BF955B" transform="translate(53,36)"/>
<path d="M0 0 C0.33 0.66 0.66 1.32 1 2 C-1.31 2.66 -3.62 3.32 -6 4 C-6 2.68 -6 1.36 -6 0 C-3 -1 -3 -1 0 0 Z " fill="#BF965B" transform="translate(27,9)"/>
</svg>
