<?xml version="1.0" encoding="UTF-8"?>
<svg version="1.1" xmlns="http://www.w3.org/2000/svg" width="269" height="330">
<path d="M0 0 C88.77 0 177.54 0 269 0 C269 108.9 269 217.8 269 330 C180.23 330 91.46 330 0 330 C0 221.1 0 112.2 0 0 Z " fill="#646464" transform="translate(0,0)"/>
<path d="M0 0 C88.77 0 177.54 0 269 0 C269 108.9 269 217.8 269 330 C180.23 330 91.46 330 0 330 C0 221.1 0 112.2 0 0 Z M19 8 C18.97087745 61.09374921 18.97087745 61.09374921 18.95117188 114.1875 C18.94921388 121.33723961 18.94719336 128.48697919 18.94506836 135.63671875 C18.94480461 136.53287281 18.94454086 137.42902688 18.94426912 138.35233712 C18.93991496 152.83673065 18.93202848 167.32112022 18.9228472 181.8055114 C18.91350916 196.66066383 18.90794407 211.51581417 18.90591151 226.37096941 C18.90453659 235.54388577 18.9001877 244.71679096 18.89208353 253.88970388 C18.88681422 260.17239212 18.88519613 266.45507454 18.88649862 272.73776482 C18.88714171 276.36729784 18.88612776 279.99681129 18.88079453 283.62634087 C18.87506557 287.55366618 18.87700104 291.48096563 18.87974548 295.40829468 C18.87683264 296.56586254 18.8739198 297.72343039 18.87091869 298.91607606 C18.87290974 299.96159344 18.87490079 301.00711081 18.87695217 302.08431053 C18.87657245 302.99184212 18.87619273 303.89937371 18.8758015 304.83440626 C18.85965925 307.04870849 18.85965925 307.04870849 20 309 C96.23 309 172.46 309 251 309 C251 233.76 251 158.52 251 81 C250.34 81 249.68 81 249 81 C249 80.34 249 79.68 249 79 C248.34 79 247.68 79 247 79 C247 78.34 247 77.68 247 77 C246.34 77 245.68 77 245 77 C245 76.34 245 75.68 245 75 C243.66666667 73.33333333 243.66666667 73.33333333 242 72 C241.34 72 240.68 72 240 72 C240 71.34 240 70.68 240 70 C239.34 70 238.68 70 238 70 C238 69.34 238 68.68 238 68 C237.34 68 236.68 68 236 68 C235.67 67.01 235.34 66.02 235 65 C234.34 65 233.68 65 233 65 C233 64.34 233 63.68 233 63 C232.34 63 231.68 63 231 63 C231 62.34 231 61.68 231 61 C230.34 61 229.68 61 229 61 C228.67 60.01 228.34 59.02 228 58 C227.34 58 226.68 58 226 58 C226 57.34 226 56.68 226 56 C225.34 56 224.68 56 224 56 C224 55.34 224 54.68 224 54 C223.34 54 222.68 54 222 54 C221.67 53.01 221.34 52.02 221 51 C220.34 51 219.68 51 219 51 C219 50.34 219 49.68 219 49 C218.34 49 217.68 49 217 49 C217 48.34 217 47.68 217 47 C216.34 47 215.68 47 215 47 C214.67 46.01 214.34 45.02 214 44 C213.34 44 212.68 44 212 44 C212 43.34 212 42.68 212 42 C211.34 42 210.68 42 210 42 C210 41.34 210 40.68 210 40 C209.34 40 208.68 40 208 40 C207.67 39.01 207.34 38.02 207 37 C206.34 37 205.68 37 205 37 C205 36.34 205 35.68 205 35 C204.34 35 203.68 35 203 35 C203 34.34 203 33.68 203 33 C202.34 33 201.68 33 201 33 C200.67 32.01 200.34 31.02 200 30 C199.34 30 198.68 30 198 30 C198 29.34 198 28.68 198 28 C197.34 28 196.68 28 196 28 C196 27.34 196 26.68 196 26 C195.34 26 194.68 26 194 26 C193.67 25.01 193.34 24.02 193 23 C192.34 23 191.68 23 191 23 C191 22.34 191 21.68 191 21 C190.34 21 189.68 21 189 21 C189 20.34 189 19.68 189 19 C188.34 19 187.68 19 187 19 C187 18.34 187 17.68 187 17 C185.66666667 15.33333333 185.66666667 15.33333333 184 14 C183.34 14 182.68 14 182 14 C182 13.34 182 12.68 182 12 C181.34 12 180.68 12 180 12 C180 11.34 180 10.68 180 10 C179.34 10 178.68 10 178 10 C178 9.34 178 8.68 178 8 C125.53 8 73.06 8 19 8 Z " fill="#1C1C2A" transform="translate(0,0)"/>
<path d="M0 0 C5.28 0 10.56 0 16 0 C16 0.66 16 1.32 16 2 C18.31 2 20.62 2 23 2 C23 2.66 23 3.32 23 4 C24.98 4 26.96 4 29 4 C29 4.66 29 5.32 29 6 C31.31 6.33 33.62 6.66 36 7 C36.495 8.98 36.495 8.98 37 11 C38.32 11 39.64 11 41 11 C41 11.66 41 12.32 41 13 C41.66 13 42.32 13 43 13 C44.625 14.375 44.625 14.375 46 16 C46 16.66 46 17.32 46 18 C46.66 18 47.32 18 48 18 C48 18.66 48 19.32 48 20 C48.66 20 49.32 20 50 20 C50.495 22.475 50.495 22.475 51 25 C51.66 25 52.32 25 53 25 C53 26.32 53 27.64 53 29 C53.66 29 54.32 29 55 29 C55 29.99 55 30.98 55 32 C55.66 32 56.32 32 57 32 C57.98248524 36.0527516 58.08159574 39.83861737 58 44 C58.66 44 59.32 44 60 44 C60 49.28 60 54.56 60 60 C59.34 60 58.68 60 58 60 C57.67 64.29 57.34 68.58 57 73 C56.34 73 55.68 73 55 73 C55 73.99 55 74.98 55 76 C54.34 76 53.68 76 53 76 C53 77.32 53 78.64 53 80 C52.01 80.495 52.01 80.495 51 81 C50.34786708 83.02463255 50.34786708 83.02463255 50 85 C49.34 85 48.68 85 48 85 C48 85.66 48 86.32 48 87 C46.68 87.33 45.36 87.66 44 88 C43.505 89.98 43.505 89.98 43 92 C42.34 92 41.68 92 41 92 C41 92.66 41 93.32 41 94 C40.360625 94.12375 39.72125 94.2475 39.0625 94.375 C38.381875 94.58125 37.70125 94.7875 37 95 C36.67 95.66 36.34 96.32 36 97 C34.68 97 33.36 97 32 97 C32 97.66 32 98.32 32 99 C31.01 99 30.02 99 29 99 C29 99.66 29 100.32 29 101 C24.71 101.33 20.42 101.66 16 102 C16 102.66 16 103.32 16 104 C10.72 104 5.44 104 0 104 C0 103.34 0 102.68 0 102 C-1.051875 102.020625 -2.10375 102.04125 -3.1875 102.0625 C-6.32704904 102.01103198 -8.96883396 101.73482813 -12 101 C-12 100.34 -12 99.68 -12 99 C-12.99 99 -13.98 99 -15 99 C-15 98.34 -15 97.68 -15 97 C-16.32 97 -17.64 97 -19 97 C-19 96.34 -19 95.68 -19 95 C-20.65 94.67 -22.3 94.34 -24 94 C-24 93.34 -24 92.68 -24 92 C-24.66 92 -25.32 92 -26 92 C-26 91.34 -26 90.68 -26 90 C-26.66 90 -27.32 90 -28 90 C-29.625 88.625 -29.625 88.625 -31 87 C-31 86.34 -31 85.68 -31 85 C-31.66 85 -32.32 85 -33 85 C-33 83.68 -33 82.36 -33 81 C-33.99 80.67 -34.98 80.34 -36 80 C-36 78.68 -36 77.36 -36 76 C-36.66 76 -37.32 76 -38 76 C-38 75.01 -38 74.02 -38 73 C-38.66 73 -39.32 73 -40 73 C-40 71.02 -40 69.04 -40 67 C-40.66 67 -41.32 67 -42 67 C-42.82481886 61.97253269 -43.15430519 57.0991028 -43.125 52 C-43.12886719 51.32710937 -43.13273437 50.65421875 -43.13671875 49.9609375 C-43.12816695 45.53110365 -42.7147525 41.35658664 -42 37 C-41.34 37 -40.68 37 -40 37 C-40 35.35 -40 33.7 -40 32 C-39.34 32 -38.68 32 -38 32 C-38 31.01 -38 30.02 -38 29 C-37.34 29 -36.68 29 -36 29 C-35.67 27.02 -35.34 25.04 -35 23 C-34.34 23 -33.68 23 -33 23 C-33 22.01 -33 21.02 -33 20 C-32.34 20 -31.68 20 -31 20 C-31 19.34 -31 18.68 -31 18 C-30.34 18 -29.68 18 -29 18 C-28.67 17.01 -28.34 16.02 -28 15 C-27.34 15 -26.68 15 -26 15 C-26 14.34 -26 13.68 -26 13 C-25.34 13 -24.68 13 -24 13 C-24 12.34 -24 11.68 -24 11 C-23.01 11 -22.02 11 -21 11 C-21 10.34 -21 9.68 -21 9 C-20.34 9 -19.68 9 -19 9 C-19 8.34 -19 7.68 -19 7 C-15.535 6.505 -15.535 6.505 -12 6 C-12 5.34 -12 4.68 -12 4 C-10.35 4 -8.7 4 -7 4 C-7 3.34 -7 2.68 -7 2 C-4.69 2 -2.38 2 0 2 C0 1.34 0 0.68 0 0 Z " fill="#13131C" transform="translate(127,117)"/>
<path d="M0 0 C52.47 0 104.94 0 159 0 C159 0.66 159 1.32 159 2 C159.66 2 160.32 2 161 2 C161 2.66 161 3.32 161 4 C161.66 4 162.32 4 163 4 C163 4.66 163 5.32 163 6 C163.66 6 164.32 6 165 6 C166.625 7.375 166.625 7.375 168 9 C168 9.66 168 10.32 168 11 C168.66 11 169.32 11 170 11 C170 11.66 170 12.32 170 13 C170.66 13 171.32 13 172 13 C172 13.66 172 14.32 172 15 C172.99 15.33 173.98 15.66 175 16 C175 16.66 175 17.32 175 18 C175.66 18 176.32 18 177 18 C177 18.66 177 19.32 177 20 C177.66 20 178.32 20 179 20 C179 20.66 179 21.32 179 22 C179.99 22.33 180.98 22.66 182 23 C182 23.66 182 24.32 182 25 C182.66 25 183.32 25 184 25 C184 25.66 184 26.32 184 27 C184.66 27 185.32 27 186 27 C186 27.66 186 28.32 186 29 C186.99 29.33 187.98 29.66 189 30 C189 30.66 189 31.32 189 32 C189.66 32 190.32 32 191 32 C191 32.66 191 33.32 191 34 C191.66 34 192.32 34 193 34 C193 34.66 193 35.32 193 36 C193.99 36.33 194.98 36.66 196 37 C196 37.66 196 38.32 196 39 C196.66 39 197.32 39 198 39 C198 39.66 198 40.32 198 41 C198.66 41 199.32 41 200 41 C200 41.66 200 42.32 200 43 C200.99 43.33 201.98 43.66 203 44 C203 44.66 203 45.32 203 46 C203.66 46 204.32 46 205 46 C205 46.66 205 47.32 205 48 C205.66 48 206.32 48 207 48 C207 48.66 207 49.32 207 50 C207.99 50.33 208.98 50.66 210 51 C210 51.66 210 52.32 210 53 C210.66 53 211.32 53 212 53 C212 53.66 212 54.32 212 55 C212.66 55 213.32 55 214 55 C214 55.66 214 56.32 214 57 C214.99 57.33 215.98 57.66 217 58 C217 58.66 217 59.32 217 60 C217.66 60 218.32 60 219 60 C219 60.66 219 61.32 219 62 C219.66 62 220.32 62 221 62 C221 62.66 221 63.32 221 64 C221.66 64 222.32 64 223 64 C224.625 65.375 224.625 65.375 226 67 C226 67.66 226 68.32 226 69 C226.66 69 227.32 69 228 69 C228 69.66 228 70.32 228 71 C228.66 71 229.32 71 230 71 C230 71.99 230 72.98 230 74 C206.24 74 182.48 74 158 74 C158 51.56 158 29.12 158 6 C105.86 6 53.72 6 0 6 C0 4.02 0 2.04 0 0 Z " fill="#B7B7B8" transform="translate(19,8)"/>
<path d="M0 0 C9.57 0 19.14 0 29 0 C29 0.66 29 1.32 29 2 C33.95 2.495 33.95 2.495 39 3 C39 3.66 39 4.32 39 5 C40.32 5 41.64 5 43 5 C43 5.66 43 6.32 43 7 C43.99 7 44.98 7 46 7 C46 7.66 46 8.32 46 9 C47.65 9.33 49.3 9.66 51 10 C51 10.66 51 11.32 51 12 C51.66 12 52.32 12 53 12 C53 12.66 53 13.32 53 14 C53.66 14 54.32 14 55 14 C55 14.66 55 15.32 55 16 C55.66 16 56.32 16 57 16 C58.625 17.375 58.625 17.375 60 19 C60 19.66 60 20.32 60 21 C60.66 21 61.32 21 62 21 C62 21.66 62 22.32 62 23 C62.66 23 63.32 23 64 23 C64.495 25.475 64.495 25.475 65 28 C65.66 28 66.32 28 67 28 C67 29.32 67 30.64 67 32 C67.66 32 68.32 32 69 32 C69 33.65 69 35.3 69 37 C69.66 37 70.32 37 71 37 C71.8516366 40.69197575 72.12859379 44.10884444 72.1328125 47.89453125 C72.13410156 49.01537109 72.13539063 50.13621094 72.13671875 51.29101562 C72.13285156 52.45310547 72.12898438 53.61519531 72.125 54.8125 C72.12886719 55.96298828 72.13273437 57.11347656 72.13671875 58.29882812 C72.12984672 64.29467009 71.91858652 70.07292987 71 76 C70.34 76 69.68 76 69 76 C69 76.99 69 77.98 69 79 C68.34 79 67.68 79 67 79 C67 80.32 67 81.64 67 83 C66.34 83 65.68 83 65 83 C64.67 84.65 64.34 86.3 64 88 C63.34 88 62.68 88 62 88 C62 88.99 62 89.98 62 91 C61.34 91 60.68 91 60 91 C60 91.66 60 92.32 60 93 C59.34 93 58.68 93 58 93 C57.505 94.98 57.505 94.98 57 97 C55.68 97.33 54.36 97.66 53 98 C53 99.32 53 100.64 53 102 C52.34 102 51.68 102 51 102 C50.505 103.485 50.505 103.485 50 105 C48.68 105 47.36 105 46 105 C46 105.66 46 106.32 46 107 C45.34 107 44.68 107 44 107 C44 107.66 44 108.32 44 109 C43.01 109 42.02 109 41 109 C41 109.66 41 110.32 41 111 C36.545 111.495 36.545 111.495 32 112 C32 112.66 32 113.32 32 114 C29.03 114 26.06 114 23 114 C23 114.66 23 115.32 23 116 C17.39 116 11.78 116 6 116 C6 115.34 6 114.68 6 114 C3.03 114 0.06 114 -3 114 C-3 113.34 -3 112.68 -3 112 C-5.97 111.67 -8.94 111.34 -12 111 C-12 110.34 -12 109.68 -12 109 C-12.99 109 -13.98 109 -15 109 C-15 108.34 -15 107.68 -15 107 C-15.66 107 -16.32 107 -17 107 C-17 106.34 -17 105.68 -17 105 C-18.65 104.67 -20.3 104.34 -22 104 C-22 103.34 -22 102.68 -22 102 C-22.66 102 -23.32 102 -24 102 C-24 101.34 -24 100.68 -24 100 C-24.66 100 -25.32 100 -26 100 C-26 99.34 -26 98.68 -26 98 C-26.99 97.67 -27.98 97.34 -29 97 C-29 96.34 -29 95.68 -29 95 C-29.66 95 -30.32 95 -31 95 C-31 94.34 -31 93.68 -31 93 C-31.66 93 -32.32 93 -33 93 C-33 92.01 -33 91.02 -33 90 C-33.66 90 -34.32 90 -35 90 C-35.5745952 86.26513121 -36 82.78706732 -36 79 C-36.66 79 -37.32 79 -38 79 C-38 77.35 -38 75.7 -38 74 C-38.66 74 -39.32 74 -40 74 C-40 72.02 -40 70.04 -40 68 C-40.66 68 -41.32 68 -42 68 C-42 59.42 -42 50.84 -42 42 C-41.34 42 -40.68 42 -40 42 C-40 40.35 -40 38.7 -40 37 C-39.34 37 -38.68 37 -38 37 C-38 35.35 -38 33.7 -38 32 C-37.34 32 -36.68 32 -36 32 C-35.67 29.69 -35.34 27.38 -35 25 C-34.34 25 -33.68 25 -33 25 C-33 24.34 -33 23.68 -33 23 C-32.34 23 -31.68 23 -31 23 C-31 22.34 -31 21.68 -31 21 C-30.34 21 -29.68 21 -29 21 C-28.67 19.35 -28.34 17.7 -28 16 C-26.68 16 -25.36 16 -24 16 C-24 15.34 -24 14.68 -24 14 C-23.34 14 -22.68 14 -22 14 C-21.67 12.68 -21.34 11.36 -21 10 C-19.02 9.67 -17.04 9.34 -15 9 C-15 8.34 -15 7.68 -15 7 C-14.01 7 -13.02 7 -12 7 C-12 6.34 -12 5.68 -12 5 C-10.68 5 -9.36 5 -8 5 C-8 4.34 -8 3.68 -8 3 C-5.36 2.67 -2.72 2.34 0 2 C0 1.34 0 0.68 0 0 Z M7 3 C7 3.66 7 4.32 7 5 C4.69 5 2.38 5 0 5 C0 5.66 0 6.32 0 7 C-1.65 7 -3.3 7 -5 7 C-5 7.66 -5 8.32 -5 9 C-7.31 9.33 -9.62 9.66 -12 10 C-12 10.66 -12 11.32 -12 12 C-12.66 12 -13.32 12 -14 12 C-14 12.66 -14 13.32 -14 14 C-14.99 14 -15.98 14 -17 14 C-17 14.66 -17 15.32 -17 16 C-17.66 16 -18.32 16 -19 16 C-19 16.66 -19 17.32 -19 18 C-19.99 18.33 -20.98 18.66 -22 19 C-22 19.66 -22 20.32 -22 21 C-22.66 21 -23.32 21 -24 21 C-24 21.66 -24 22.32 -24 23 C-24.66 23 -25.32 23 -26 23 C-26 23.99 -26 24.98 -26 26 C-26.66 26 -27.32 26 -28 26 C-28.33 27.98 -28.66 29.96 -29 32 C-29.66 32 -30.32 32 -31 32 C-31 32.99 -31 33.98 -31 35 C-31.66 35 -32.32 35 -33 35 C-33 36.65 -33 38.3 -33 40 C-33.66 40 -34.32 40 -35 40 C-35.82481886 45.02746731 -36.15430519 49.9008972 -36.125 55 C-36.12886719 55.67289063 -36.13273437 56.34578125 -36.13671875 57.0390625 C-36.12816695 61.46889635 -35.7147525 65.64341336 -35 70 C-34.34 70 -33.68 70 -33 70 C-33 71.98 -33 73.96 -33 76 C-32.34 76 -31.68 76 -31 76 C-31 76.99 -31 77.98 -31 79 C-30.34 79 -29.68 79 -29 79 C-28.67 80.65 -28.34 82.3 -28 84 C-27.34 84 -26.68 84 -26 84 C-26 85.32 -26 86.64 -26 88 C-25.34 88 -24.68 88 -24 88 C-24 88.66 -24 89.32 -24 90 C-22.66666667 91.66666667 -22.66666667 91.66666667 -21 93 C-20.34 93 -19.68 93 -19 93 C-19 93.66 -19 94.32 -19 95 C-18.34 95 -17.68 95 -17 95 C-17 95.66 -17 96.32 -17 97 C-15.35 97.33 -13.7 97.66 -12 98 C-12 98.66 -12 99.32 -12 100 C-10.68 100 -9.36 100 -8 100 C-8 100.66 -8 101.32 -8 102 C-7.01 102 -6.02 102 -5 102 C-5 102.66 -5 103.32 -5 104 C-0.9472484 104.98248524 2.83861737 105.08159574 7 105 C7 105.66 7 106.32 7 107 C12.28 107 17.56 107 23 107 C23 106.34 23 105.68 23 105 C29.435 104.505 29.435 104.505 36 104 C36 103.34 36 102.68 36 102 C36.99 102 37.98 102 39 102 C39 101.34 39 100.68 39 100 C40.32 100 41.64 100 43 100 C43.33 99.34 43.66 98.68 44 98 C46.0625 97.375 46.0625 97.375 48 97 C48 96.34 48 95.68 48 95 C48.66 95 49.32 95 50 95 C50.495 93.02 50.495 93.02 51 91 C52.32 90.67 53.64 90.34 55 90 C55 89.34 55 88.68 55 88 C55.66 88 56.32 88 57 88 C57.185625 87.0409375 57.185625 87.0409375 57.375 86.0625 C57.58125 85.381875 57.7875 84.70125 58 84 C58.66 83.67 59.32 83.34 60 83 C60 81.68 60 80.36 60 79 C60.66 79 61.32 79 62 79 C62 78.01 62 77.02 62 76 C62.66 76 63.32 76 64 76 C64.33 71.71 64.66 67.42 65 63 C65.66 63 66.32 63 67 63 C67 57.72 67 52.44 67 47 C66.34 47 65.68 47 65 47 C65.020625 45.948125 65.04125 44.89625 65.0625 43.8125 C65.01103198 40.67295096 64.73482813 38.03116604 64 35 C63.34 35 62.68 35 62 35 C62 34.01 62 33.02 62 32 C61.34 32 60.68 32 60 32 C60 30.68 60 29.36 60 28 C59.34 28 58.68 28 58 28 C57.67 26.35 57.34 24.7 57 23 C56.34 23 55.68 23 55 23 C55 22.34 55 21.68 55 21 C54.34 21 53.68 21 53 21 C53 20.34 53 19.68 53 19 C51.66666667 17.33333333 51.66666667 17.33333333 50 16 C49.34 16 48.68 16 48 16 C48 15.34 48 14.68 48 14 C46.68 14 45.36 14 44 14 C43.505 12.02 43.505 12.02 43 10 C40.69 9.67 38.38 9.34 36 9 C36 8.34 36 7.68 36 7 C34.02 7 32.04 7 30 7 C30 6.34 30 5.68 30 5 C27.69 5 25.38 5 23 5 C23 4.34 23 3.68 23 3 C17.72 3 12.44 3 7 3 Z " fill="#D9AB68" transform="translate(120,114)"/>
<path d="M0 0 C0.33 0.66 0.66 1.32 1 2 C77.23 2 153.46 2 232 2 C232 3.65 232 5.3 232 7 C155.44 7 78.88 7 0 7 C0 4.69 0 2.38 0 0 Z " fill="#3F3F40" transform="translate(19,307)"/>
<path d="M0 0 C4.29 0 8.58 0 13 0 C14.46098845 2.9219769 14.11134901 5.49893475 14.09765625 8.7578125 C14.0962413 9.42086395 14.09482635 10.08391541 14.09336853 10.76705933 C14.08776754 12.88641863 14.075215 15.00567259 14.0625 17.125 C14.05748512 18.56119639 14.05292219 19.99739444 14.04882812 21.43359375 C14.03779782 24.95576345 14.02053259 28.47787145 14 32 C11.36 32 8.72 32 6 32 C6 28.04 6 24.08 6 20 C4.02 20.33 2.04 20.66 0 21 C0 24.63 0 28.26 0 32 C-2.64 32 -5.28 32 -8 32 C-8 23.75 -8 15.5 -8 7 C-6.35 6.67 -4.7 6.34 -3 6 C-3 5.34 -3 4.68 -3 4 C-2.34 4 -1.68 4 -1 4 C-0.67 2.68 -0.34 1.36 0 0 Z " fill="#BFC9F4" transform="translate(106,154)"/>
<path d="M0 0 C8.58 0 17.16 0 26 0 C26 2.97 26 5.94 26 9 C25.01 9 24.02 9 23 9 C23 8.34 23 7.68 23 7 C21.68 7 20.36 7 19 7 C18.67 15.25 18.34 23.5 18 32 C15.03 32 12.06 32 9 32 C9 22.1 9 12.2 9 2 C8.34 2 7.68 2 7 2 C7 3.65 7 5.3 7 7 C5.68 7 4.36 7 3 7 C3 7.66 3 8.32 3 9 C2.01 9 1.02 9 0 9 C0 6.03 0 3.06 0 0 Z " fill="#C0CAF4" transform="translate(124,154)"/>
<path d="M0 0 C2.97 0 5.94 0 9 0 C9 9.9 9 19.8 9 30 C9.99 30 10.98 30 12 30 C12 28.35 12 26.7 12 25 C12.66 25 13.32 25 14 25 C14 24.34 14 23.68 14 23 C16.31 23 18.62 23 21 23 C21 25.31 21 27.62 21 30 C20.34 30 19.68 30 19 30 C19 30.66 19 31.32 19 32 C12.73 32 6.46 32 0 32 C0 21.44 0 10.88 0 0 Z " fill="#BFC9F4" transform="translate(154,154)"/>
<path d="M0 0 C0.66 0 1.32 0 2 0 C2 1.32 2 2.64 2 4 C2.66 4 3.32 4 4 4 C4 4.66 4 5.32 4 6 C4.66 6 5.32 6 6 6 C6.33 7.65 6.66 9.3 7 11 C7.66 11 8.32 11 9 11 C9 11.66 9 12.32 9 13 C10.32 13.33 11.64 13.66 13 14 C13.33 15.32 13.66 16.64 14 18 C15.32 18 16.64 18 18 18 C18 18.66 18 19.32 18 20 C19.65 20.33 21.3 20.66 23 21 C23 21.66 23 22.32 23 23 C24.32 23 25.64 23 27 23 C27 23.66 27 24.32 27 25 C29.31 25 31.62 25 34 25 C34 25.66 34 26.32 34 27 C44.89 27 55.78 27 67 27 C67 26.34 67 25.68 67 25 C68.65 25 70.3 25 72 25 C72 24.34 72 23.68 72 23 C73.98 23 75.96 23 78 23 C78 22.34 78 21.68 78 21 C78.99 21 79.98 21 81 21 C81 21.66 81 22.32 81 23 C80.34 23 79.68 23 79 23 C79 23.66 79 24.32 79 25 C78.01 25 77.02 25 76 25 C76 25.66 76 26.32 76 27 C73.03 27.33 70.06 27.66 67 28 C67 28.66 67 29.32 67 30 C64.03 30 61.06 30 58 30 C58 30.66 58 31.32 58 32 C52.39 32 46.78 32 41 32 C41 31.34 41 30.68 41 30 C38.03 30 35.06 30 32 30 C32 29.34 32 28.68 32 28 C29.03 27.67 26.06 27.34 23 27 C23 26.34 23 25.68 23 25 C22.01 25 21.02 25 20 25 C20 24.34 20 23.68 20 23 C19.34 23 18.68 23 18 23 C18 22.34 18 21.68 18 21 C16.35 20.67 14.7 20.34 13 20 C13 19.34 13 18.68 13 18 C12.34 18 11.68 18 11 18 C11 17.34 11 16.68 11 16 C10.34 16 9.68 16 9 16 C9 15.34 9 14.68 9 14 C8.01 13.67 7.02 13.34 6 13 C6 12.34 6 11.68 6 11 C5.34 11 4.68 11 4 11 C4 10.34 4 9.68 4 9 C3.34 9 2.68 9 2 9 C2 8.01 2 7.02 2 6 C1.34 6 0.68 6 0 6 C-0.38218767 4.34385343 -0.71395102 2.67542976 -1 1 C-0.67 0.67 -0.34 0.34 0 0 Z " fill="#BBB8B3" transform="translate(85,198)"/>
<path d="M0 0 C0.99 0 1.98 0 3 0 C3 0.66 3 1.32 3 2 C2.34 2 1.68 2 1 2 C1 2.66 1 3.32 1 4 C0.01 4 -0.98 4 -2 4 C-2 4.66 -2 5.32 -2 6 C-6.455 6.495 -6.455 6.495 -11 7 C-11 7.66 -11 8.32 -11 9 C-13.97 9 -16.94 9 -20 9 C-20 9.66 -20 10.32 -20 11 C-25.61 11 -31.22 11 -37 11 C-37 10.34 -37 9.68 -37 9 C-37.66 9 -38.32 9 -39 9 C-39 8.34 -39 7.68 -39 7 C-29.76 6.67 -20.52 6.34 -11 6 C-11 5.34 -11 4.68 -11 4 C-9.35 4 -7.7 4 -6 4 C-6 3.34 -6 2.68 -6 2 C-4.02 2 -2.04 2 0 2 C0 1.34 0 0.68 0 0 Z " fill="#BABABA" transform="translate(163,219)"/>
<path d="M0 0 C1.32 0 2.64 0 4 0 C4 4.62 4 9.24 4 14 C3.34 14 2.68 14 2 14 C2 14.66 2 15.32 2 16 C0.68 16 -0.64 16 -2 16 C-2 11.38 -2 6.76 -2 2 C-1.34 2 -0.68 2 0 2 C0 1.34 0 0.68 0 0 Z " fill="#272836" transform="translate(108,156)"/>
<path d="M0 0 C2.97 0 5.94 0 9 0 C9 0.66 9 1.32 9 2 C8.34 2 7.68 2 7 2 C7 3.65 7 5.3 7 7 C5.68 7 4.36 7 3 7 C3 7.66 3 8.32 3 9 C2.01 9 1.02 9 0 9 C0 6.03 0 3.06 0 0 Z " fill="#B4BDE6" transform="translate(124,154)"/>
<path d="M0 0 C0.99 0 1.98 0 3 0 C3 0.66 3 1.32 3 2 C2.34 2 1.68 2 1 2 C1 2.66 1 3.32 1 4 C0.01 4 -0.98 4 -2 4 C-2 4.66 -2 5.32 -2 6 C-6.455 6.495 -6.455 6.495 -11 7 C-11 7.66 -11 8.32 -11 9 C-11.99 9 -12.98 9 -14 9 C-14 8.34 -14 7.68 -14 7 C-15.98 7 -17.96 7 -20 7 C-20 6.67 -20 6.34 -20 6 C-17.03 6 -14.06 6 -11 6 C-11 5.34 -11 4.68 -11 4 C-9.35 4 -7.7 4 -6 4 C-6 3.34 -6 2.68 -6 2 C-4.02 2 -2.04 2 0 2 C0 1.34 0 0.68 0 0 Z " fill="#B8B1A8" transform="translate(163,219)"/>
<path d="M0 0 C2.64 0 5.28 0 8 0 C8 2.97 8 5.94 8 9 C7.01 9 6.02 9 5 9 C5 8.34 5 7.68 5 7 C3.68 7 2.36 7 1 7 C0.67 4.69 0.34 2.38 0 0 Z " fill="#B2BCE4" transform="translate(142,154)"/>
<path d="M0 0 C0.66 0 1.32 0 2 0 C2 1.32 2 2.64 2 4 C2.66 4 3.32 4 4 4 C4 4.66 4 5.32 4 6 C4.66 6 5.32 6 6 6 C6.33 7.65 6.66 9.3 7 11 C7.66 11 8.32 11 9 11 C9 11.66 9 12.32 9 13 C9.66 13.33 10.32 13.66 11 14 C9.35 13.67 7.7 13.34 6 13 C6 12.34 6 11.68 6 11 C5.34 11 4.68 11 4 11 C4 10.34 4 9.68 4 9 C3.34 9 2.68 9 2 9 C2 8.01 2 7.02 2 6 C1.34 6 0.68 6 0 6 C-0.38218767 4.34385343 -0.71395102 2.67542976 -1 1 C-0.67 0.67 -0.34 0.34 0 0 Z " fill="#9B9895" transform="translate(85,198)"/>
<path d="M0 0 C1.32 0 2.64 0 4 0 C4.33 1.32 4.66 2.64 5 4 C6.32 4 7.64 4 9 4 C9 4.66 9 5.32 9 6 C10.65 6.33 12.3 6.66 14 7 C14 7.66 14 8.32 14 9 C13.34 9 12.68 9 12 9 C11.67 9.66 11.34 10.32 11 11 C11 10.34 11 9.68 11 9 C10.34 9 9.68 9 9 9 C9 8.34 9 7.68 9 7 C7.35 6.67 5.7 6.34 4 6 C4 5.34 4 4.68 4 4 C3.34 4 2.68 4 2 4 C2 3.34 2 2.68 2 2 C1.34 2 0.68 2 0 2 C0 1.34 0 0.68 0 0 Z " fill="#AFAEAD" transform="translate(94,212)"/>
<path d="M0 0 C0.33 0 0.66 0 1 0 C1 8.25 1 16.5 1 25 C1.66 25 2.32 25 3 25 C3 26.65 3 28.3 3 30 C2.01 30 1.02 30 0 30 C0 20.1 0 10.2 0 0 Z " fill="#494C60" transform="translate(163,154)"/>
<path d="M0 0 C0.66 0 1.32 0 2 0 C2 3.96 2 7.92 2 12 C2.66 12 3.32 12 4 12 C4 12.66 4 13.32 4 14 C2.68 14 1.36 14 0 14 C0 9.38 0 4.76 0 0 Z " fill="#3C3F51" transform="translate(106,158)"/>
<path d="M0 0 C1.32 0 2.64 0 4 0 C4.33 1.98 4.66 3.96 5 6 C4.01 6.33 3.02 6.66 2 7 C2 6.01 2 5.02 2 4 C1.34 4 0.68 4 0 4 C0 2.68 0 1.36 0 0 Z " fill="#7B7977" transform="translate(80,193)"/>
<path d="M0 0 C0.66 0 1.32 0 2 0 C2 1.32 2 2.64 2 4 C2.66 4 3.32 4 4 4 C4 4.66 4 5.32 4 6 C2.68 6 1.36 6 0 6 C-0.38218767 4.34385343 -0.71395102 2.67542976 -1 1 C-0.67 0.67 -0.34 0.34 0 0 Z " fill="#988B7C" transform="translate(85,198)"/>
<path d="M0 0 C0.66 0 1.32 0 2 0 C2 1.32 2 2.64 2 4 C1.34 4 0.68 4 0 4 C0 4.66 0 5.32 0 6 C-0.99 6 -1.98 6 -3 6 C-2.67 4.68 -2.34 3.36 -2 2 C-1.34 2 -0.68 2 0 2 C0 1.34 0 0.68 0 0 Z " fill="#727272" transform="translate(180,205)"/>
</svg>
